#Comment line ignore any data following # character 
#Hierarchical Translation and Rotation (.htr) file 
[Header]	
#Header keywords are followed by a single value 
FileType HTR		#Single word string
DataType HTRS		#Translation followed by rotation and scale data
FileVersion 1		#integer
NumSegments 25		#integer
NumFrames 5		#integer
DataFrameRate 30		#integer, data frame rate in this file
EulerRotationOrder ZYX
CalibrationUnits mm
RotationUnits Degrees
GlobalAxisofGravity Y
BoneLengthAxis Y
ScaleFactor 1.00
[SegmentNames&Hierarchy]
#CHILD	PARENT
BN_Tick_Root GLOBAL
BN_Torso BN_Tick_Root
BN_L_Leg_Front01 BN_Torso
BN_L_Leg_Rear01 BN_Torso
BN_MetalTop BN_Torso
BN_Neck BN_Torso
BN_R_Leg_Front01 BN_Torso
BN_R_Leg_Rear01 BN_Torso
BN_Sack BN_Torso
BN_L_Leg_Front02 BN_L_Leg_Front01
BN_L_Leg_Front03 BN_L_Leg_Front02
BN_L_Leg_Rear02 BN_L_Leg_Rear01
BN_L_Leg_Rear03 BN_L_Leg_Rear02
BN_Head BN_Neck
BN_Needle BN_Head
BN_R_Leg_Front02 BN_R_Leg_Front01
BN_R_Leg_Front03 BN_R_Leg_Front02
BN_R_Leg_Rear02 BN_R_Leg_Rear01
BN_R_Leg_Rear03 BN_R_Leg_Rear02
BN_SackDef01 BN_Sack
BN_SackDef02 BN_Sack
BN_SackDef03 BN_Sack
BN_SackDef04 BN_Sack
BN_SackDef05 BN_Sack
BN_SackDef06 BN_Sack
[BasePosition]
#SegmentName Tx, Ty, Tz, Rx, Ry, Rz, BoneLength
BN_Tick_Root 0.000000 0.000000 0.000000 -90.000000 0.000000 0.000000 10.000000 
BN_Torso 0.000000 0.000000 0.000000 0.000000 0.000000 0.000000 10.000000 
BN_L_Leg_Front01 0.000000 0.000000 0.000000 0.000000 0.000000 0.000000 10.000000 
BN_L_Leg_Rear01 0.000000 0.000000 0.000000 0.000000 0.000000 0.000000 10.000000 
BN_MetalTop 0.000000 0.000000 0.000000 0.000000 0.000000 0.000000 10.000000 
BN_Neck 0.000000 0.000000 0.000000 0.000000 0.000000 0.000000 10.000000 
BN_R_Leg_Front01 0.000000 0.000000 0.000000 0.000000 0.000000 0.000000 10.000000 
BN_R_Leg_Rear01 0.000000 0.000000 0.000000 0.000000 0.000000 0.000000 10.000000 
BN_Sack 0.000000 0.000000 0.000000 0.000000 0.000000 0.000000 10.000000 
BN_L_Leg_Front02 0.000000 0.000000 0.000000 0.000000 0.000000 0.000000 10.000000 
BN_L_Leg_Front03 0.000000 0.000000 0.000000 0.000000 0.000000 0.000000 10.000000 
BN_L_Leg_Rear02 0.000000 0.000000 0.000000 0.000000 0.000000 0.000000 10.000000 
BN_L_Leg_Rear03 0.000000 0.000000 0.000000 0.000000 0.000000 0.000000 10.000000 
BN_Head 0.000000 0.000000 0.000000 0.000000 0.000000 0.000000 10.000000 
BN_Needle 0.000000 0.000000 0.000000 0.000000 0.000000 0.000000 10.000000 
BN_R_Leg_Front02 0.000000 0.000000 0.000000 0.000000 0.000000 0.000000 10.000000 
BN_R_Leg_Front03 0.000000 0.000000 0.000000 0.000000 0.000000 0.000000 10.000000 
BN_R_Leg_Rear02 0.000000 0.000000 0.000000 0.000000 0.000000 0.000000 10.000000 
BN_R_Leg_Rear03 0.000000 0.000000 0.000000 0.000000 0.000000 0.000000 10.000000 
BN_SackDef01 0.000000 0.000000 0.000000 0.000000 0.000000 0.000000 10.000000 
BN_SackDef02 0.000000 0.000000 0.000000 0.000000 0.000000 0.000000 10.000000 
BN_SackDef03 0.000000 0.000000 0.000000 0.000000 0.000000 0.000000 10.000000 
BN_SackDef04 0.000000 0.000000 0.000000 0.000000 0.000000 0.000000 10.000000 
BN_SackDef05 0.000000 0.000000 0.000000 0.000000 0.000000 0.000000 10.000000 
BN_SackDef06 0.000000 0.000000 0.000000 0.000000 0.000000 0.000000 10.000000 
#Beginning of Data. Separated by tabs
#Fr	Tx	Ty	Tz	Rx	Ry	Rz	SF
[BN_Tick_Root]
173 -663.783508 1837.368286 240.365448 0.000000 -0.000000 -115.508949 1968.325806
174 -664.094360 1843.514282 226.348190 0.000000 -0.000000 -116.179512 1972.511108
175 -664.449890 1849.101318 210.318268 0.000000 -0.000000 -116.850044 1976.082764
176 -664.841125 1854.151367 192.679474 0.000000 -0.000000 -117.329811 1979.145386
177 -665.268005 1858.441528 173.431122 0.000000 -0.000000 -117.809631 1981.530884
[BN_Torso]
173 26.750483 13.663754 218.637924 -27.903976 -8.560202 9.561400 220.691711
174 32.588970 17.057175 232.956482 -27.905230 -8.561956 10.232979 235.842560
175 37.211521 20.278568 249.269974 -27.906496 -8.563691 10.904531 252.846664
176 41.347050 23.255257 267.123596 -27.906540 -8.562805 11.384535 271.303192
177 44.724785 26.008812 286.499359 -27.906561 -8.561915 11.864548 291.133362
[BN_L_Leg_Front01]
173 -68.477791 10.734189 -26.804373 -46.667557 38.495914 113.707687 74.316254
174 -68.477791 10.734189 -26.804373 -46.660355 38.515472 113.714279 74.316254
175 -68.477791 10.734189 -26.804373 -46.653145 38.535007 113.720848 74.316254
176 -68.477791 10.734189 -26.804373 -46.645916 38.554535 113.727440 74.316254
177 -68.477791 10.734189 -26.804373 -46.638706 38.574085 113.734047 74.316254
[BN_L_Leg_Rear01]
173 -72.133743 -73.994843 -18.268616 -47.902863 59.687542 122.500221 104.939293
174 -72.133743 -73.994843 -18.268616 -47.922531 59.682343 122.478874 104.939293
175 -72.133743 -73.994843 -18.268616 -47.942215 59.677158 122.457558 104.939293
176 -72.133743 -73.994843 -18.268616 -47.961868 59.671947 122.436211 104.939293
177 -72.133743 -73.994843 -18.268616 -47.981506 59.666725 122.414886 104.939293
[BN_MetalTop]
173 0.000008 13.737477 26.403606 90.003624 -17.416208 -90.001442 29.763546
174 0.000008 13.737477 26.403606 90.003143 -16.659115 -90.001709 29.763546
175 0.000008 13.737477 26.403606 90.002541 -16.134109 -90.001106 29.763546
176 0.000008 13.737477 26.403606 90.001938 -15.609153 -90.000488 29.763546
177 0.000008 13.737477 26.403606 90.001534 -15.287642 -90.001549 29.763546
[BN_Neck]
173 0.000014 95.233284 10.002091 -90.002846 -34.365360 90.001541 95.757088
174 0.000014 95.233284 10.002091 -89.998344 -34.255215 89.997047 95.757088
175 0.000014 95.233284 10.002091 -90.001450 -37.382977 90.000175 95.757088
176 0.000014 95.233284 10.002091 -90.002052 -44.836979 90.000809 95.757088
177 0.000014 95.233284 10.002091 -89.995079 -53.738953 89.993874 95.757088
[BN_R_Leg_Front01]
173 68.477768 10.734107 -26.804314 84.102234 47.479332 72.445595 74.316193
174 68.477768 10.734107 -26.804314 84.108917 47.498425 72.458420 74.316193
175 68.477768 10.734107 -26.804314 84.115601 47.517506 72.471252 74.316193
176 68.477768 10.734107 -26.804314 84.122284 47.536579 72.484070 74.316193
177 68.477768 10.734107 -26.804314 84.128975 47.555672 72.496910 74.316193
[BN_R_Leg_Rear01]
173 72.133751 -73.994873 -18.268644 92.755302 67.074402 93.347641 104.939331
174 72.133751 -73.994873 -18.268644 92.765663 67.062927 93.358009 104.939331
175 72.133751 -73.994873 -18.268644 92.776001 67.051468 93.368370 104.939331
176 72.133751 -73.994873 -18.268644 92.786308 67.039993 93.378693 104.939331
177 72.133751 -73.994873 -18.268644 92.796669 67.028564 93.389069 104.939331
[BN_Sack]
173 -0.000000 -78.024918 33.657791 90.001312 4.963537 -90.000229 84.974907
174 -0.000000 -78.024918 33.657791 89.998878 5.654107 -90.002670 84.974907
175 -0.000000 -78.024918 33.657791 89.999153 5.015256 -89.997627 84.974907
176 -0.000000 -78.024918 33.657791 90.003731 3.324737 -89.999489 84.974907
177 -0.000000 -78.024918 33.657791 90.003197 0.856806 -90.000069 84.974907
[BN_L_Leg_Front02]
173 142.805023 -0.000015 -0.000104 0.081777 0.589148 -120.593628 142.805023
174 142.805023 -0.000015 -0.000104 0.082801 0.587384 -120.483910 142.805023
175 142.805023 -0.000015 -0.000104 0.083821 0.585617 -120.374176 142.805023
176 142.805023 -0.000015 -0.000104 0.084838 0.583848 -120.264442 142.805023
177 142.805023 -0.000015 -0.000104 0.085852 0.582078 -120.154739 142.805023
[BN_L_Leg_Front03]
173 124.143021 -0.000045 0.000007 0.353805 -0.352591 128.348755 124.143021
174 124.143021 -0.000045 0.000007 0.353162 -0.352774 128.268478 124.143021
175 124.143021 -0.000045 0.000007 0.352520 -0.352959 128.188187 124.143021
176 124.143021 -0.000045 0.000007 0.351878 -0.353145 128.107910 124.143021
177 124.143021 -0.000045 0.000007 0.351236 -0.353331 128.027603 124.143021
[BN_L_Leg_Rear02]
173 139.939041 0.000075 -0.000022 -0.009393 -0.266732 122.354088 139.939041
174 139.939041 0.000075 -0.000022 -0.009357 -0.259377 122.210953 139.939041
175 139.939041 0.000075 -0.000022 -0.009340 -0.252022 122.067787 139.939041
176 139.939041 0.000075 -0.000022 -0.009341 -0.244668 121.924667 139.939041
177 139.939041 0.000075 -0.000022 -0.009257 -0.244672 121.885056 139.939041
[BN_L_Leg_Rear03]
173 142.839615 0.000179 -0.000060 0.000978 -0.002134 -139.256699 142.839615
174 142.839615 0.000179 -0.000060 0.000976 -0.002134 -139.164307 142.839615
175 142.839615 0.000179 -0.000060 0.000975 -0.002135 -139.071945 142.839615
176 142.839615 0.000179 -0.000060 0.000973 -0.002136 -138.979553 142.839615
177 142.839615 0.000179 -0.000060 0.000971 -0.002137 -138.887192 142.839615
[BN_Head]
173 57.062447 -0.000030 0.000000 0.002032 0.001174 29.951548 57.062447
174 57.062447 -0.000030 0.000000 0.002043 0.001155 31.043606 57.062447
175 57.062447 -0.000030 0.000000 0.002064 0.001117 33.143543 57.062447
176 57.062447 -0.000030 0.000000 0.002095 0.001059 36.356560 57.062447
177 57.062447 -0.000030 0.000000 0.002125 0.000996 39.778091 57.062447
[BN_Needle]
173 33.304558 53.051392 -0.000092 0.000003 0.000030 87.896805 62.638992
174 33.228226 50.973175 -0.000103 0.000003 0.000030 87.896805 60.847183
175 33.151905 48.895130 -0.000114 0.000003 0.000030 87.896805 59.074383
176 33.113426 47.847248 -0.000108 0.000003 0.000030 87.896805 58.188126
177 33.074947 46.799355 -0.000102 0.000003 0.000030 87.896805 57.307346
[BN_R_Leg_Front02]
173 142.804947 -0.000060 0.000060 -0.078675 0.600084 121.572449 142.804947
174 142.804947 -0.000060 0.000060 -0.079298 0.600003 121.453346 142.804947
175 142.804947 -0.000060 0.000060 -0.079922 0.599920 121.334244 142.804947
176 142.804947 -0.000060 0.000060 -0.080545 0.599835 121.215149 142.804947
177 142.804947 -0.000060 0.000060 -0.080586 0.597049 121.181107 142.804947
[BN_R_Leg_Front03]
173 124.143005 -0.000060 -0.000156 -0.355132 -0.347779 -129.153290 124.143005
174 124.143005 -0.000060 -0.000156 -0.354278 -0.348043 -129.067001 124.143005
175 124.143005 -0.000060 -0.000156 -0.353424 -0.348309 -128.980682 124.143005
176 124.143005 -0.000060 -0.000156 -0.352571 -0.348576 -128.894379 124.143005
177 124.143005 -0.000060 -0.000156 -0.351718 -0.348844 -128.808060 124.143005
[BN_R_Leg_Rear02]
173 139.939011 -0.000149 0.000015 -0.032355 -0.238937 -110.042610 139.939011
174 139.939011 -0.000149 0.000015 -0.032674 -0.243365 -109.939850 139.939011
175 139.939011 -0.000149 0.000015 -0.033000 -0.247792 -109.837097 139.939011
176 139.939011 -0.000149 0.000015 -0.033335 -0.252218 -109.734352 139.939011
177 139.939011 -0.000149 0.000015 -0.033677 -0.256641 -109.631615 139.939011
[BN_R_Leg_Rear03]
173 142.839417 0.000075 0.000119 0.002212 -0.000786 129.134766 142.839417
174 142.839417 0.000075 0.000119 0.002212 -0.000784 129.041595 142.839417
175 142.839417 0.000075 0.000119 0.002213 -0.000783 128.948425 142.839417
176 142.839417 0.000075 0.000119 0.002214 -0.000781 128.855255 142.839417
177 142.839417 0.000075 0.000119 0.002214 -0.000779 128.762100 142.839417
[BN_SackDef01]
173 249.782272 -3.760844 42.949425 -128.408218 -44.374973 -11.740845 253.475800
174 249.782272 -3.760844 42.949425 -128.408218 -44.374973 -11.740845 253.475800
175 249.782272 -3.760844 42.949425 -128.408218 -44.374973 -11.740845 253.475800
176 249.782272 -3.760844 42.949425 -128.408218 -44.374973 -11.740845 253.475800
177 249.782272 -3.760844 42.949425 -128.408218 -44.374973 -11.740845 253.475800
[BN_SackDef02]
173 138.789795 -62.131748 45.674385 32.077126 -27.375721 -88.781525 158.773758
174 138.789795 -62.131748 45.674385 32.077126 -27.375721 -88.781525 158.773758
175 138.789795 -62.131748 45.674385 32.077126 -27.375721 -88.781525 158.773758
176 138.789795 -62.131748 45.674385 32.077126 -27.375721 -88.781525 158.773758
177 138.789795 -62.131748 45.674385 32.077126 -27.375721 -88.781525 158.773758
[BN_SackDef03]
173 249.782272 -3.760785 -42.949661 18.144459 44.375008 -11.740894 253.475845
174 249.782272 -3.760785 -42.949661 18.144459 44.375008 -11.740894 253.475845
175 249.782272 -3.760785 -42.949661 18.144459 44.375008 -11.740894 253.475845
176 249.782272 -3.760785 -42.949661 18.144459 44.375008 -11.740894 253.475845
177 249.782272 -3.760785 -42.949661 18.144459 44.375008 -11.740894 253.475845
[BN_SackDef04]
173 138.789780 -62.131645 -45.674473 146.059982 27.375723 -88.781555 158.773743
174 138.789780 -62.131645 -45.674473 146.059982 27.375723 -88.781555 158.773743
175 138.789780 -62.131645 -45.674473 146.059982 27.375723 -88.781555 158.773743
176 138.789780 -62.131645 -45.674473 146.059982 27.375723 -88.781555 158.773743
177 138.789780 -62.131645 -45.674473 146.059982 27.375723 -88.781555 158.773743
[BN_SackDef05]
173 118.790161 46.167137 -63.831196 0.155741 51.314110 90.605110 142.537460
174 118.790161 46.167137 -63.831196 0.155741 51.314110 90.605110 142.537460
175 118.790161 46.167137 -63.831196 0.155741 51.314110 90.605110 142.537460
176 118.790161 46.167137 -63.831196 0.155741 51.314110 90.605110 142.537460
177 118.790161 46.167137 -63.831196 0.155741 51.314110 90.605110 142.537460
[BN_SackDef06]
173 118.790207 46.167194 63.831219 152.058487 -51.314072 90.605019 142.537537
174 118.790207 46.167194 63.831219 152.058487 -51.314072 90.605019 142.537537
175 118.790207 46.167194 63.831219 152.058487 -51.314072 90.605019 142.537537
176 118.790207 46.167194 63.831219 152.058487 -51.314072 90.605019 142.537537
177 118.790207 46.167194 63.831219 152.058487 -51.314072 90.605019 142.537537
